<region> lokey=60 hikey=61 pitch_keycenter=60 sample=two_1_1.$EXT region_label=1_1
<region> lokey=62 hikey=64 pitch_keycenter=64 sample=two_1_3.$EXT region_label=1_3
<region> lokey=65 hikey=67 pitch_keycenter=65 sample=two_1_4.$EXT region_label=1_4
<region> lokey=68 hikey=70 pitch_keycenter=69 sample=two_1_6.$EXT region_label=1_6
<region> lokey=71 hikey=73 pitch_keycenter=72 sample=two_2_1.$EXT region_label=2_1
<region> lokey=74 hikey=76 pitch_keycenter=76 sample=two_2_3.$EXT region_label=2_3
<region> lokey=77 hikey=79 pitch_keycenter=77 sample=two_2_4.$EXT region_label=2_4
<region> lokey=80 hikey=82 pitch_keycenter=81 sample=two_2_6.$EXT region_label=2_6
<region> lokey=83 hikey=85 pitch_keycenter=84 sample=two_3_1.$EXT region_label=3_1
<region> lokey=86 hikey=88 pitch_keycenter=88 sample=two_3_3.$EXT region_label=3_3
<region> lokey=89 hikey=91 pitch_keycenter=89 sample=two_3_4.$EXT region_label=3_4
<region> lokey=92 hikey=96 pitch_keycenter=93 sample=two_3_6.$EXT region_label=3_6